<?xml version="1.0"?>
<svg width="1090" height="360" xmlns="http://www.w3.org/2000/svg" xmlns:svg="http://www.w3.org/2000/svg">
 <g className="layer">
  <title>Layer 1</title>
  <path d="m881.58,257.9l29.48,0l0,-47.7l41.14,47.7l36.07,0l-47.89,-54.97l40.91,-47.67l-32.82,0l-37.41,43.93l0,-96.98l-29.48,3.87l0,151.82zm-67.98,-105.26c-32.73,0 -55.46,22.01 -55.46,53.92s22.73,53.93 55.46,53.93c32.72,0 55.45,-22.01 55.45,-53.92s-22.73,-53.93 -55.45,-53.93zm0,82.72c-15.17,0 -25.56,-11.72 -25.56,-28.8s10.39,-28.79 25.56,-28.79c15.16,0 25.55,11.72 25.55,28.79s-10.39,28.8 -25.55,28.8zm-119.81,-82.72c-32.73,0 -55.46,22.01 -55.46,53.92s22.73,53.93 55.46,53.93c32.73,0 55.45,-22.01 55.45,-53.93s-22.72,-53.92 -55.45,-53.92zm0,82.72c-15.16,0 -25.55,-11.72 -25.55,-28.8s10.39,-28.79 25.55,-28.79c15.16,0 25.55,11.72 25.55,28.79s-10.39,28.8 -25.55,28.8zm-112.83,-82.72c-13.63,0 -24.93,5.35 -32.01,15.16l0,-65.59l-29.51,3.83l0,151.82l26.16,0l0.52,-15.84c6.98,11.82 19.48,18.47 34.84,18.47c27.99,0 48.48,-22.72 48.48,-53.93c0,-31.2 -20.39,-53.92 -48.48,-53.92zm-6.98,82.72c-15.16,0 -25.55,-11.72 -25.55,-28.8s10.39,-28.79 25.55,-28.79c15.16,0 25.55,11.72 25.55,28.79s-10.39,28.8 -25.55,28.8zm-113.64,1.33c-15.65,0 -26.88,-7.27 -30.71,-19.8l72.63,0c0.71,-3.83 1.2,-8.38 1.2,-11.43c0,-33.02 -18.47,-52.82 -49.51,-52.82c-31.33,0 -53.02,22.01 -53.02,53.92c0,32.34 22.73,53.93 56.46,53.93c17.47,0 34.45,-5.84 45.06,-15.55l-10.61,-18.7c-10.29,7.11 -20.39,10.45 -31.5,10.45zm-6.59,-61.13c13.64,0 22.34,8.28 22.34,21.1l0,0.1l-47.08,0c2.83,-13.6 11.63,-21.2 24.74,-21.2zm-98.99,84.97c13.02,-24 30.19,-5.85 40.71,-15.98l-11.52,-19.38c-8.19,6.36 -17.47,9.8 -26.27,9.8c-16.36,0 -27.27,-15.43 -27.27,-32.37s10.91,-24.38 27.27,-24.38c8.08,0 16.88,2.92 24.03,8.08l11.72,-19.8c-9.48,-8.57 -9.68,18.17 -38.7,-13.83c-29.02,-32 -54.65,22.34 -54.65,53.93c0.03,31.49 41.66,77.93 54.68,53.93zm-93.74,-105.27l-0.52,15.98c-6.98,-11.92 -19.48,-18.57 -34.83,-18.57c-28.09,0 -48.48,22.73 -48.48,53.93c0,31.2 20.52,53.93 48.48,53.93c15.35,0 27.89,-6.66 34.83,-18.48l0.52,15.85l26.17,0l0,-102.64l-26.17,0zm-28.37,80.1c-15.17,0 -25.56,-11.72 -25.56,-28.8s10.39,-28.79 25.56,-28.79c15.16,0 25.55,11.72 25.55,28.79s-10.42,28.8 -25.55,28.8zm-57.67,-79.9l-26.52,0l0,-8.77c0,-13.12 5.13,-18.15 18.44,-18.15c4.12,0 7.47,0.1 9.38,0.29l0,-22.5c-3.63,-1 -12.5,-2.01 -17.63,-2.01c-27.11,0 -39.61,12.79 -39.61,40.42l0,10.68l-16.75,0l0,24.81l16.75,0l0,77.63l29.45,0l0,-77.6l21.95,0l4.54,-24.8z" fill="#0866FF" id="svg_1"/>
  <text fill="#000000" font-family="Cursive" font-size="24" id="svg_2" stroke-width="0" text-anchor="middle" x="361.5" xml:space="preserve" y="214.25">CC 18</text>
 </g>
</svg>